<svg width="42" height="44" xmlns="http://www.w3.org/2000/svg" xmlns:xlink="http://www.w3.org/1999/xlink" xml:space="preserve" overflow="hidden"><g transform="translate(-740 -280)"><g><g><g><g><path d="M773.688 296.225C769.75 291.938 765.506 294.869 762.269 295.612 762.181 294.562 761.919 293.6 761.612 292.681 762.969 292.55 764.981 292.112 766.381 290.669 768.656 288.394 768.438 284.544 768.438 284.544 768.438 284.544 764.544 284.325 762.312 286.6 761.263 287.65 760.737 289.05 760.475 290.275 758.55 287.038 755.75 285.331 755.575 285.2L754.219 287.431C754.263 287.475 758.987 290.406 759.644 295.569 756.45 294.781 752.162 291.938 748.312 296.181 744.069 300.862 747.7 324.837 761.044 318.231 774.344 324.881 777.931 300.906 773.688 296.225Z" fill="#000000" fill-rule="nonzero" fill-opacity="1"/></g></g></g></g></g></svg>